<svg width="25" height="27" viewBox="0 0 25 27" fill="none" xmlns="http://www.w3.org/2000/svg">
<path d="M21.8994 13.7192V8.48303C21.8994 6.45124 21.8994 5.43534 21.5779 4.62396C21.0609 3.31957 19.9677 2.29067 18.5818 1.80416C17.7197 1.50153 16.6403 1.50153 14.4814 1.50153C10.7035 1.50153 8.81454 1.50153 7.30586 2.03113C4.88046 2.88253 2.96733 4.6831 2.0627 6.96579C1.5 8.38569 1.49999 10.1635 1.49999 13.7192V16.7736C1.49999 20.4566 1.5 22.2982 2.51721 23.5771C2.80865 23.9435 3.15429 24.2688 3.54362 24.5431C4.79746 25.4265 6.56032 25.4947 9.89976 25.5" stroke="#494949" stroke-width="3" stroke-linecap="round" stroke-linejoin="round"/>
<path d="M1.50002 13.5C1.50002 11.291 3.29083 9.50018 5.49991 9.50018C6.29883 9.50018 7.2407 9.64017 8.01747 9.43204C8.70764 9.24711 9.24672 8.70804 9.43165 8.01789C9.63978 7.24113 9.49979 6.29927 9.49979 5.50036C9.49979 3.29132 11.2906 1.50054 13.4997 1.50054" stroke="#494949" stroke-width="3" stroke-linecap="round" stroke-linejoin="round"/>
<path d="M12.2997 19.5015L13.527 20.2147C14.1444 17.9748 16.5132 16.6455 18.8177 17.2457C19.9974 17.5529 20.9315 18.3061 21.4796 19.2687M23.0994 23.1013L21.8723 22.3881C21.2548 24.628 18.8861 25.9572 16.5816 25.3571C15.4293 25.057 14.5113 24.3313 13.9585 23.4007" stroke="#494949" stroke-width="3" stroke-linecap="round" stroke-linejoin="round"/>
</svg>
